<?xml version="1.0" encoding="utf-8"?>
<!-- Generator: Adobe Illustrator 21.1.0, SVG Export Plug-In . SVG Version: 6.00 Build 0)  -->
<svg version="1.1" xmlns="http://www.w3.org/2000/svg" xmlns:xlink="http://www.w3.org/1999/xlink" x="0px" y="0px"
	 viewBox="0 0 681.1 500" style="enable-background:new 0 0 681.1 500;" xml:space="preserve">
<style type="text/css">
	.st0{fill:#FFFFFF;}
</style>
<g id="Layer_2">
</g>
<g id="Layer_1">
	<path class="st0" d="M328.5,401.2l12.3-63.1l20.1,45.6l20.9-45.6l11.1,63.1h-5c-2.4,0-4.4-1.7-4.7-4l-5-31.4l-17.4,38.1l-16.9-38.1
		l-5.5,31c-0.5,2.5-2.7,4.4-5.2,4.4H328.5z"/>
	<path class="st0" d="M580.8,380.2v-37.7h-2.7c-3.4,0-6.1,2.7-6.1,6.1V371L580.8,380.2z"/>
	<path class="st0" d="M571.9,383.1L571.9,383.1l-42.8-44.7v62.6h2.2c3.7,0,6.7-3,6.7-6.7V360l42.8,44.6v-12.3L571.9,383.1z"/>
	<path class="st0" d="M493.1,340.8c-8.5,0-15.7,3-21.7,8.9c-6.1,5.9-9.1,13-9.1,21.3c0,3.3,0.4,6.3,1.2,9.1c0.4-0.3,0.7-0.4,0.7-0.4
		c3.7-1.5,5.9-3.5,7.2-5.6c-0.1-1-0.2-2-0.2-3c0-6.2,2.1-11.4,6.3-15.6c4.2-4.3,9.4-6.4,15.5-6.4c6.1,0,11.3,2.1,15.4,6.4
		c4.2,4.2,6.3,9.5,6.3,15.7c0,6.2-2.1,11.4-6.3,15.7c-4.2,4.3-9.4,6.4-15.6,6.4c-5.7,0-10.7-2.1-15-6.3c-1.5-1.4-2.7-3-3.7-4.6
		c-1.1,0.8-2.3,1.4-3.6,2c-1.6,0.7-2.9,1.6-3.9,2.6c1.5,2.4,3.4,4.7,5.7,6.7c6,5.2,12.8,7.9,20.4,7.9c8.6,0,15.9-3,21.9-8.9
		c6-5.9,9-13,9-21.5c0-8.4-3-15.6-9-21.5C508.7,343.8,501.5,340.8,493.1,340.8z"/>
	<g>
		<path class="st0" d="M397.9,342.5v8.3h16.2v0h16.4c3.5,0,6.4-2.9,6.4-6.4v-1.9H397.9z"/>
		<g>
			<path class="st0" d="M406.8,373.3h7.2h16.5c3.2,0,5.8-2.6,5.8-5.8v-2.5h-29.5v0h-8.8v8.3H406.8z"/>
			<path class="st0" d="M433.5,392.9h-26.7v0h-8.8v8.4h39v-4.9C437,394.4,435.4,392.9,433.5,392.9z"/>
		</g>
	</g>
	<path class="st0" d="M129.9,349.7c-6,0-11.1,2.2-15.2,6.5c-4.2,4.3-6.2,9.6-6.2,15.8c0,6.2,2.1,11.3,6.2,15.6
		c4.2,4.2,9.2,6.3,15.3,6.3c3.1,0,5.8-0.5,7.9-1.5c1.2-0.5,2.5-1.2,3.8-2.1c1.3-0.9,2.7-1.9,4.1-3.1v10.7c-5.1,2.9-10.4,4.3-16,4.3
		c-8.4,0-15.5-2.9-21.5-8.8c-5.9-5.9-8.9-13-8.9-21.3c0-7.5,2.5-14.1,7.4-20c6.1-7.2,13.9-10.8,23.6-10.8L129.9,349.7z"/>
	<path class="st0" d="M147.5,371.5c0-8.3,3-15.3,9.1-21.3c6-5.9,13.3-8.9,21.7-8.9c8.4,0,15.5,3,21.5,9c6,6,9,13.2,9,21.5
		c0,8.4-3,15.6-9,21.5c-6.1,5.9-13.4,8.9-21.9,8.9c-7.6,0-14.4-2.6-20.4-7.9C150.8,388.5,147.5,380.9,147.5,371.5z M156.4,371.6
		c0,6.5,2.2,11.8,6.5,16c4.3,4.2,9.3,6.3,15,6.3c6.2,0,11.3-2.1,15.6-6.4c4.2-4.3,6.3-9.5,6.3-15.7c0-6.3-2.1-11.5-6.3-15.7
		c-4.2-4.3-9.3-6.4-15.4-6.4c-6.1,0-11.3,2.1-15.5,6.4C158.5,360.3,156.4,365.5,156.4,371.6z"/>
	<path class="st0" d="M223.1,392.8h4c4,0,7.3-0.4,9.9-1.3c2.6-0.9,5-2.3,7.1-4.2c4.4-4,6.5-9.2,6.5-15.5c0-6.4-2.2-11.6-6.5-15.7
		c-3.9-3.6-9.6-5.4-17.1-5.4h-4v17.3c0,2.1-1.7,3.7-3.7,3.7l-5.1,0v-29.3h12.3c5.9,0,10.6,0.6,14,1.7c3.7,1.1,7,3.1,10,5.8
		c6.1,5.5,9.1,12.8,9.1,21.8c0,9-3.2,16.3-9.5,21.9c-3.2,2.8-6.5,4.7-10,5.8c-3.2,1.1-7.8,1.6-13.8,1.6h-12.2v-3.5
		c0-2.6,2.1-4.7,4.7-4.8L223.1,392.8z"/>
	<g>
		<path class="st0" d="M265.1,342.5v8.3h16.2v0h15.1c3.5,0,6.4-2.9,6.4-6.4v-1.9H265.1z"/>
		<g>
			<path class="st0" d="M274,373.2h7.2h15.2c3.2,0,5.8-2.6,5.8-5.8v-2.5H274v0h-8.8v8.3H274z"/>
			<path class="st0" d="M299.4,392.8H274v0h-8.8v8.4h37.7v-4.9C302.9,394.4,301.3,392.8,299.4,392.8z"/>
		</g>
	</g>
	<path class="st0" d="M343.1,283.4c5.8-7.8,18.8-32.1-12.8-61.8l-64.9-61c-10.4-9.8-2.2-15.3,2.1-17.3l2.3-0.9l0,0l50.5-20.1
		c16.1-8,7.1-26.2,7.1-26.2l-121.4,42.6L343.1,283.4z"/>
	<path class="st0" d="M426.1,196.8L426.1,196.8L426.1,196.8l2.3,2.2c3.9,4.2,10.3,13.8-3.1,21l-35.2,19.2
		c-17.8,9.7-16.3,31.8-14.5,42.4L482.7,215L355.5,99.4c0,0-12.7,15.9,3.4,33.1L426.1,196.8z"/>
</g>
</svg>
